<?xml version="1.0" encoding="utf-8"?>
<!-- Generator: Adobe Illustrator 24.0.2, SVG Export Plug-In . SVG Version: 6.00 Build 0)  -->
<svg version="1.1" xmlns="http://www.w3.org/2000/svg" xmlns:xlink="http://www.w3.org/1999/xlink" x="0px" y="0px"
	 viewBox="0 0 612 792" style="enable-background:new 0 0 612 792;" xml:space="preserve">
<style type="text/css">
	.st0{fill:#FEFEFE;}
	.st1{fill:#306DF6;}
	.st2{fill:#FDFDFD;}
	.st3{fill:#FCFCFD;}
</style>
<g id="Capa_1">
	<path class="st0" d="M15.65,535.12c0-149.06,0.02-298.11-0.09-447.17c0-4.17,0.4-5.73,5.31-5.73c180.27,0.16,360.55,0.16,540.82,0
		c4.91,0,5.31,1.56,5.31,5.73c-0.11,149.06-0.09,298.11-0.09,447.17c-2.73-3.24-0.19-7.82-3.31-11.28
		c-4.73-5.26-8.32-10.68-16.04-13.38c-6.22-2.17-12.45-2.84-17.25-0.99c-8.84,3.41-17.71,7.34-26.51,10.8
		c-10.42,4.1-20.7,8.7-30.95,13.05c-13.64,5.78-26.83,12.77-40.42,18.85c-4.16,1.86-8.52,3.75-12.54,6.34
		c-6.18,3.99-13.29,6.51-19.96,9.76c-7.61,3.7-15.34,6.85-23.43,9.58c-12,4.06-23.81,8.33-36.51,8.84
		c-15.06,0.61-30.05-0.83-45.06-1.99c-4.67-0.36-8.44-3.25-13.07-2.75c-4.6,0.5-8.78-1.58-13.17-2.3c-2.52-0.42-2.36-2.99-1.59-3.03
		c3.99-0.23,5.7-4.77,10.14-4.4c7.8,0.65,15.58-0.02,23.36,2.37c8.38,2.57,16.57-2.46,25.06-2.28c10.57,0.22,20.82-1.26,30.88-5.05
		c12.98-4.9,21.59-13.31,24.08-27.11c1.09-6.07,0.63-13.31-2.92-17.54c-6.51-7.76-15.61-13.36-25.9-14.86
		c-7.56-1.1-15.33-1.45-23.08-1.61c-13.06-0.28-26.25-0.06-38.99-4.38c-2.96-1-6.93-0.55-9.58-2.12
		c-8.73-5.18-17.84-9.25-27.65-11.79c-16.52-4.28-33.12-7.73-50.4-6.83c-15.67,0.82-31.21-0.12-46.86,4.32
		c-9.84,2.79-20.48,4.57-30.4,7.24c-9.21,2.48-19.04,3.04-27.93,7.43c-4.11,2.03-9.66,1.19-14.57,1.48
		c-6.91,0.42-14.54-0.34-20.52,1.81c-7.69,2.76-15.86,2.49-23.51,6.07c-6.75,3.16-12.64,5.86-17.16,12.11
		C17.99,525.76,17.98,530.8,15.65,535.12z M362.72,282.88c-53.67-0.05-95.53,42.09-95.31,95.84c0.2,49.08,39.39,95.29,97.67,93.98
		c51.21-1.15,91.81-43,92.12-94.38C457.52,326.29,416.02,282.9,362.72,282.88z M186.4,339.46c46.23,1.45,84.69-38.21,84.76-83.73
		c0.08-46.14-38.08-85.62-86.2-84.63c-44.41,0.9-82.86,36.9-82.77,84.97C102.26,302.13,140.91,340.38,186.4,339.46z M398.09,246.96
		c43.94,0.1,80.72-35.32,80.71-80.66c0-47.1-37.72-81.96-81.75-81.44c-45.02,0.53-80.52,35.46-80.53,81.35
		C316.53,211.59,352.82,246.98,398.09,246.96z M489.19,486.09c-11.62-1.93-20.69,4.95-30.65,7.64
		c-10.94,2.95-21.28,8.72-32.14,12.65c-2.67,0.97-5.61,1.84-7.92,3.02c-7.03,3.59-14.17,6.78-21.7,9
		c-8.91,2.63-9.61,3.97-7.71,14.18c1.52,8.19-2.29,15.56-6.19,21.96c-1.95,3.21-2.74,5.83-1.31,8.06c1.75,2.74,6.67,2.37,8.1,0.84
		c5.82-6.23,14.23-7.09,21.09-11.11c12.94-7.59,26.77-13.89,40.76-19.37c8.81-3.45,17.25-7.66,25.84-11.46
		c10.93-4.84,22.04-9.28,33.27-13.09c6.22-2.11,5.3-5.94,4.28-9.04c-0.83-2.54-3.53-5.45-5.64-7.18
		C503.5,487.47,496.65,484.29,489.19,486.09z"/>
	<path class="st1" d="M563.59,523.84c-4.73-5.26-8.32-10.68-16.04-13.38c-6.22-2.17-12.45-2.84-17.25-0.99
		c-8.84,3.41-17.71,7.34-26.51,10.8c-10.42,4.1-20.7,8.7-30.95,13.05c-13.64,5.78-26.83,12.77-40.42,18.85
		c-4.16,1.86-8.52,3.75-12.54,6.34c-6.18,3.99-13.29,6.51-19.96,9.76c-7.61,3.7-15.34,6.85-23.43,9.58
		c-12,4.06-23.81,8.33-36.51,8.84c-15.06,0.61-30.05-0.83-45.06-1.99c-4.67-0.36-8.44-3.25-13.07-2.75c-4.6,0.5-8.78-1.58-13.17-2.3
		c-2.52-0.42-2.36-2.99-1.59-3.03c3.99-0.23,5.7-4.77,10.14-4.4c7.8,0.65,15.58-0.02,23.36,2.37c8.38,2.57,16.57-2.46,25.06-2.28
		c10.57,0.22,20.82-1.26,30.88-5.05c12.98-4.9,21.59-13.31,24.08-27.11c1.09-6.07,0.63-13.31-2.92-17.54
		c-6.51-7.76-15.61-13.36-25.9-14.86c-7.56-1.1-15.33-1.45-23.08-1.61c-13.06-0.28-26.25-0.06-38.99-4.38
		c-2.96-1-6.93-0.55-9.58-2.12c-8.73-5.18-17.84-9.25-27.65-11.79c-16.52-4.28-33.12-7.73-50.4-6.83
		c-15.67,0.82-31.21-0.12-46.86,4.32c-9.84,2.79-20.48,4.57-30.4,7.24c-9.21,2.48-19.04,3.04-27.93,7.43
		c-4.11,2.03-9.66,1.19-14.57,1.48c-6.91,0.42-14.54-0.34-20.52,1.81c-7.69,2.76-15.86,2.49-23.51,6.07
		c-6.75,3.16-12.64,5.86-17.16,12.11c-3.11,4.31-3.13,9.35-5.46,13.67v25.22c2.45,1.77,0.79,4.34,1.25,6.51
		c2.75,13.15,6.56,26.05,11.01,38.66c2.87,8.15,4.27,16.65,7.47,24.73c3.16,7.99,12.99,16.34,21.45,15.56
		c7.6-0.7,15.71,0.73,22.6-2.79c8.81-4.51,18.3-7.18,27.27-11.25c9.98-4.52,21.51-3.33,32.61-2.58c9.47,0.64,17.85,4.9,26.77,7.2
		c10.54,2.73,21.05,6.09,31.39,9.6c4.78,1.62,9.7,2.44,14.46,3.96c11.31,3.61,22.91,6.31,34.34,9.56c7.43,2.11,15.1,3.42,22.41,5.61
		c7.53,2.26,14.96,4.08,22.69,4.45c0.5-0.17,1.07-0.27,1.69-0.27c7.46,0,14.92,0.01,22.39,0.07c4.87-0.01,9.75,0.06,14.62,0.15
		c4.58-0.58,9.04-1.77,13.2-2.93c7.4-2.07,15.13-4.23,22.48-7.23c11.36-4.65,22.86-9,34.32-13.44c4.62-1.79,9.44-3.46,13.85-5.61
		c10.13-4.95,20.68-8.93,30.73-14.13c9.79-5.07,19.73-10.01,29.11-15.66c9.8-5.91,20.71-10.01,29.46-17.9
		c2.61-2.35,6.54-4.2,9.97-5.62c8.14-3.37,14.89-8.94,22.26-13.41c6.02-3.66,12.09-7.61,17.96-11.67
		c7.13-4.92,12.01-10.24,12.31-19.08c0.03-0.85,0.22-1.54,1.19-1.71v-6C564.17,531.88,566.71,527.31,563.59,523.84z"/>
	<path class="st0" d="M566.9,541.13c-0.97,0.17-1.17,0.86-1.19,1.71c-0.29,8.84-5.18,14.16-12.31,19.08
		c-5.87,4.05-11.94,8.01-17.96,11.67c-7.36,4.47-14.11,10.04-22.26,13.41c-3.43,1.42-7.36,3.27-9.97,5.62
		c-8.74,7.89-19.65,11.99-29.46,17.9c-9.38,5.65-19.32,10.59-29.11,15.66c-10.05,5.2-20.6,9.18-30.73,14.13
		c-4.4,2.15-9.22,3.82-13.85,5.61c-11.45,4.44-22.96,8.79-34.32,13.44c-7.35,3.01-15.07,5.16-22.48,7.23
		c-4.15,1.16-8.62,2.35-13.2,2.93c2.81,0.05,5.62,0.09,8.44,0.13c2.02,0.02,3.41,1.03,4.16,2.39c73.34,0,146.68-0.02,220.02,0.1
		c3.58,0.01,4.32-0.72,4.3-4.3C566.84,625.59,566.9,583.36,566.9,541.13z"/>
	<path class="st0" d="M291.37,669.57c-7.74-0.37-15.16-2.2-22.69-4.45c-7.31-2.19-14.98-3.5-22.41-5.61
		c-11.43-3.25-23.03-5.95-34.34-9.56c-4.76-1.52-9.69-2.34-14.46-3.96c-10.34-3.51-20.85-6.88-31.39-9.6
		c-8.92-2.31-17.3-6.56-26.77-7.2c-11.09-0.75-22.63-1.94-32.61,2.58c-8.97,4.06-18.46,6.74-27.27,11.25
		c-6.89,3.53-15.01,2.09-22.6,2.79c-8.46,0.78-18.28-7.58-21.45-15.56c-3.2-8.08-4.6-16.58-7.47-24.73
		c-4.45-12.61-8.26-25.51-11.01-38.66c-0.45-2.17,1.2-4.74-1.25-6.51c0,35.63,0.09,71.26-0.12,106.88
		c-0.02,4.12,0.81,4.93,4.92,4.92c88.3-0.14,176.6-0.12,264.9-0.12c0.73-0.62,1.65-1.06,2.78-1.2c0.5-0.06,1-0.11,1.51-0.17
		C290.1,670.18,290.68,669.8,291.37,669.57z"/>
	<path class="st1" d="M362.72,282.88c53.3,0.02,94.8,43.41,94.48,95.44c-0.32,51.38-40.91,93.23-92.12,94.38
		c-58.28,1.31-97.48-44.91-97.67-93.98C267.19,324.96,309.05,282.83,362.72,282.88z M360.22,425.83c10.81,0,21.62-0.1,32.42,0.06
		c3.55,0.05,5.3-1.03,4.94-4.79c-0.19-1.99,0.28-4.09-0.19-5.98c-2.31-9.42-2.73-19.12-3.17-28.67c-0.5-10.7-2.48-21.22-2.81-31.92
		c-0.2-6.2-3.01-7.93-9.62-6.7c-5.83,1.09-3.19,4.9-2.37,8.24c1.44,5.82-1.65,10.69-6.63,10.91c-7.13,0.32-10.53-4.9-7.65-11.79
		c2.46-5.89,1.49-7.37-4.86-7.42c-1-0.01-2,0-3,0c-6.12,0.03-6.78,1.29-4.1,6.76c1.93,3.94,2.58,8.11-1.88,10.91
		c-2.87,1.81-6.14,2.71-9.36,0.47c-3.94-2.74-3.95-6.64-2.69-10.6c0.81-2.55,1.77-5.97-0.19-7.07c-2.22-1.25-5.81-1.38-8.42,0.72
		c-2.46,1.98-2.62,4.82-2.76,7.72c-0.33,6.92-0.58,13.86-1.29,20.75c-1.42,13.87-2.83,27.75-4.83,41.54
		c-0.87,6.02,2.02,6.87,6.63,6.86C339.01,425.82,349.61,425.83,360.22,425.83z M374.79,348.53c-0.02,0-0.04,0-0.07,0
		c0-3.2,0.18-6.41-0.03-9.6c-0.59-8.85-7.78-17.38-16.68-16.5c-8.33,0.82-13.11,6.55-13.45,16.69c-0.22,6.45,1.7,13.12-1.56,19.34
		c-1,1.9,1.08,2.21,1.79,3.14c0.78,1.02,2.13,0.94,3.23,0.27c1.34-0.82,1.91-2.13,1.42-3.61c-2.37-7.2-0.79-14.59-1.03-21.87
		c-0.15-4.76,4.71-9.86,8.88-10.19c5.33-0.43,12.22,3.32,12.43,7.6c0.37,7.75,0.11,15.56-0.39,23.31c-0.1,1.51-0.96,2.86,0.24,4.24
		c0.9,1.05,2.25,1.28,3.28,0.78c1.8-0.88,2.06-2.66,1.97-4.59C374.69,354.53,374.79,351.53,374.79,348.53z"/>
	<path class="st1" d="M186.4,339.46c-45.49,0.92-84.14-37.33-84.22-83.39c-0.08-48.08,38.37-84.07,82.77-84.97
		c48.13-0.98,86.28,38.5,86.2,84.63C271.09,301.25,232.63,340.91,186.4,339.46z M181.88,223.15c-2.6,1.11-3.19,4.13-5.06,6.12
		c-6.58,7.04-12.89,14.33-19.27,21.56c-0.9,1.03-2.28,1.5-0.04,3.42c12.57,10.77,24.57,22.22,37.26,32.85
		c4.49,3.76,8.34,8.24,13.39,11.42c3.22,2.02,5.8,1.39,7.88-0.8c5-5.27,9.67-10.86,14.4-16.38c6.54-7.64,6.38-10.63-0.37-16.44
		C213.99,251.04,197.97,237.09,181.88,223.15z M157.05,210.82c-6.28,4.81-10,11.32-15.37,16.3c-1.34,1.24-2.09,3.03-0.42,3.98
		c3.2,1.82,5.27,4.75,7.94,7.07c4.25,3.69,7.81,5.09,10.83-1.45c0.94-2.04,3.3-3.4,4.93-5.16c7-7.57,6.93-7.51-1.47-14.15
		C161.17,215.58,159.3,213.16,157.05,210.82z"/>
	<path class="st1" d="M398.09,246.96c-45.28,0.01-81.56-35.38-81.56-80.74c0-45.89,35.5-80.82,80.53-81.35
		c44.03-0.52,81.75,34.33,81.75,81.44C478.81,211.65,442.03,247.06,398.09,246.96z M383.83,119.56c-2.11,0.15-4.23-0.36-6.28,1.02
		c-7.72,5.21-15.58,10.19-23.31,15.38c-2.94,1.98-3.43,5.06-1.44,7.72c1.65,2.2,2.62,5.05,4.46,6.72c2.96,2.67,3.42,9.49,7.92,8.31
		c7.91-2.08,6.37,1.23,4.84,5.89c-0.54,1.65-0.32,3.53-0.66,5.25c-1.99,9.94-4.59,19.75-5.71,29.86c-0.41,3.66,0.81,5.7,4.6,6.39
		c12.83,2.34,25.71,4.48,38.4,7.42c5.34,1.24,6.91-0.77,7.81-5.2c2.35-11.6,4.63-23.22,7.39-34.72c0.35-1.45,0.41-7.72,4.38-3.84
		c4.08,3.98,6.45,1.84,9.51-0.12c3.43-2.19,6.85-4.44,10.12-6.86c2.66-1.97,4.26-3.77,1.49-7.6c-5.44-7.53-10.01-15.68-14.95-23.57
		c-2.85-4.56-11.32-6.49-16.13-3.7c-8.22,4.76-15.22,3.87-21.51-3.5C391.7,120.83,388.37,119.16,383.83,119.56z"/>
	<path class="st1" d="M489.19,486.09c7.47-1.8,14.32,1.38,20.07,6.1c2.11,1.73,4.81,4.64,5.64,7.18c1.02,3.1,1.94,6.93-4.28,9.04
		c-11.23,3.81-22.34,8.25-33.27,13.09c-8.6,3.81-17.03,8.01-25.84,11.46c-13.99,5.48-27.82,11.78-40.76,19.37
		c-6.86,4.02-15.27,4.89-21.09,11.11c-1.43,1.53-6.35,1.9-8.1-0.84c-1.43-2.23-0.64-4.85,1.31-8.06c3.9-6.4,7.71-13.76,6.19-21.96
		c-1.9-10.21-1.2-11.55,7.71-14.18c7.53-2.22,14.67-5.41,21.7-9c2.32-1.18,5.25-2.06,7.92-3.02c10.86-3.93,21.2-9.7,32.14-12.65
		C468.5,491.04,477.57,484.16,489.19,486.09z"/>
	<path class="st0" d="M360.22,425.83c-10.61,0-21.21-0.02-31.82,0.01c-4.62,0.01-7.5-0.84-6.63-6.86
		c1.99-13.79,3.41-27.67,4.83-41.54c0.7-6.89,0.95-13.83,1.29-20.75c0.14-2.9,0.3-5.75,2.76-7.72c2.61-2.1,6.21-1.97,8.42-0.72
		c1.96,1.11,0.99,4.52,0.19,7.07c-1.25,3.96-1.24,7.86,2.69,10.6c3.22,2.24,6.49,1.34,9.36-0.47c4.46-2.8,3.81-6.97,1.88-10.91
		c-2.68-5.47-2.01-6.74,4.1-6.76c1,0,2-0.01,3,0c6.35,0.05,7.32,1.53,4.86,7.42c-2.87,6.89,0.52,12.11,7.65,11.79
		c4.98-0.23,8.07-5.1,6.63-10.91c-0.83-3.35-3.47-7.15,2.37-8.24c6.61-1.23,9.43,0.49,9.62,6.7c0.34,10.7,2.32,21.22,2.81,31.92
		c0.44,9.54,0.86,19.24,3.17,28.67c0.46,1.89,0,4,0.19,5.98c0.36,3.76-1.39,4.84-4.94,4.79
		C381.84,425.73,371.03,425.83,360.22,425.83z"/>
	<path class="st2" d="M374.79,348.53c0,3-0.1,6,0.04,8.99c0.09,1.94-0.17,3.71-1.97,4.59c-1.02,0.5-2.37,0.27-3.28-0.78
		c-1.2-1.39-0.34-2.73-0.24-4.24c0.5-7.75,0.76-15.56,0.39-23.31c-0.21-4.28-7.1-8.02-12.43-7.6c-4.17,0.33-9.03,5.43-8.88,10.19
		c0.23,7.29-1.34,14.68,1.03,21.87c0.49,1.48-0.08,2.79-1.42,3.61c-1.1,0.67-2.45,0.76-3.23-0.27c-0.71-0.93-2.79-1.23-1.79-3.14
		c3.26-6.22,1.34-12.89,1.56-19.34c0.34-10.14,5.12-15.87,13.45-16.69c8.9-0.88,16.09,7.65,16.68,16.5c0.21,3.18,0.03,6.4,0.03,9.6
		C374.74,348.53,374.77,348.53,374.79,348.53z"/>
	<path class="st0" d="M181.88,223.15c16.08,13.94,32.11,27.88,48.2,41.75c6.74,5.81,6.91,8.8,0.37,16.44
		c-4.73,5.52-9.4,11.11-14.4,16.38c-2.07,2.19-4.66,2.82-7.88,0.8c-5.05-3.18-8.91-7.66-13.39-11.42
		c-12.69-10.63-24.69-22.07-37.26-32.85c-2.24-1.92-0.86-2.4,0.04-3.42c6.38-7.23,12.68-14.52,19.27-21.56
		C178.7,227.28,179.28,224.26,181.88,223.15z"/>
	<path class="st3" d="M157.05,210.82c2.25,2.33,4.12,4.75,6.44,6.59c8.4,6.64,8.47,6.58,1.47,14.15c-1.62,1.75-3.98,3.12-4.93,5.16
		c-3.02,6.54-6.59,5.13-10.83,1.45c-2.67-2.32-4.73-5.25-7.94-7.07c-1.67-0.95-0.92-2.74,0.42-3.98
		C147.05,222.14,150.78,215.63,157.05,210.82z M158.54,221.26c-0.07-1.7-1.14-2.75-2.56-2.82c-1.81-0.1-2.83,1.55-3.2,2.98
		c-0.41,1.55,0.84,2.6,2.4,2.66C157.05,224.15,157.83,222.67,158.54,221.26z M150.16,230.13c1.41-0.46,2.62-1.32,2.55-3.18
		c-0.05-1.35-1.07-2.3-2.23-2.18c-1.69,0.18-2.75,1.42-2.77,3.23C147.71,229.43,148.55,230.1,150.16,230.13z"/>
	<path class="st0" d="M383.83,119.56c4.54-0.4,7.87,1.27,10.92,4.84c6.3,7.37,13.3,8.26,21.51,3.5c4.81-2.79,13.28-0.85,16.13,3.7
		c4.94,7.89,9.52,16.04,14.95,23.57c2.76,3.83,1.16,5.63-1.49,7.6c-3.27,2.43-6.69,4.67-10.12,6.86c-3.06,1.96-5.43,4.1-9.51,0.12
		c-3.97-3.88-4.03,2.39-4.38,3.84c-2.76,11.5-5.04,23.12-7.39,34.72c-0.9,4.43-2.46,6.43-7.81,5.2c-12.69-2.94-25.58-5.08-38.4-7.42
		c-3.78-0.69-5-2.72-4.6-6.39c1.12-10.11,3.72-19.92,5.71-29.86c0.35-1.73,0.12-3.61,0.66-5.25c1.52-4.65,3.06-7.97-4.84-5.89
		c-4.49,1.18-4.96-5.63-7.92-8.31c-1.84-1.66-2.81-4.51-4.46-6.72c-1.99-2.66-1.51-5.74,1.44-7.72
		c7.73-5.19,15.59-10.18,23.31-15.38C379.59,119.2,381.72,119.72,383.83,119.56z"/>
	<path class="st1" d="M158.54,221.26c-0.7,1.41-1.49,2.88-3.36,2.81c-1.56-0.06-2.81-1.11-2.4-2.66c0.38-1.43,1.4-3.08,3.2-2.98
		C157.39,218.51,158.46,219.56,158.54,221.26z"/>
	<path class="st1" d="M150.16,230.13c-1.62-0.03-2.46-0.7-2.44-2.13c0.02-1.81,1.08-3.06,2.77-3.23c1.15-0.12,2.17,0.83,2.23,2.18
		C152.79,228.8,151.57,229.67,150.16,230.13z"/>
</g>
<g id="Capa_2">
</g>
</svg>
